{"glyphs":{":":{"x_min":0,"x_max":233,"ha":233,"o":"m 54 422 l 54 598 l 179 598 l 179 422 z m 54 0 l 54 175 l 178 175 l 178 0 z"},"$":{"x_min":0,"x_max":531,"ha":531,"o":"m 348 1 l 327 0 l 307 0 l 307 -61 l 227 -61 l 227 0 l 61 0 l 61 123 l 257 123 l 290 123 q 339 123 339 176 l 339 218 q 339 247 332 258 q 325 269 298 278 l 263 289 l 259 291 l 221 302 l 218 303 l 171 321 l 146 331 l 124 339 l 98 351 q 69 369 56 394 q 42 420 42 460 l 42 588 q 42 652 81 686 q 120 720 199 720 l 227 720 l 227 776 l 307 776 l 307 720 l 446 720 l 446 597 l 255 597 q 198 597 190 555 l 190 549 l 190 516 q 190 489 198 478 q 205 466 229 457 l 252 448 l 266 444 l 292 435 l 314 428 l 348 418 l 356 415 l 402 398 q 453 379 471 355 q 489 331 489 279 l 489 144 q 489 85 452 46 q 416 8 348 1 z"},"?":{"x_min":0,"x_max":422,"ha":422,"o":"m 390 483 q 384 447 370 422 q 357 398 325 365 l 286 324 q 256 293 256 256 l 255 214 l 134 215 l 134 297 q 134 319 139 330 q 144 342 168 371 l 193 401 l 201 410 l 211 424 q 230 450 240 473 q 249 496 249 516 l 249 576 q 249 607 205 612 l 188 612 q 141 608 141 568 l 141 527 l 9 527 l 9 595 q 9 662 52 695 q 96 728 196 728 l 236 727 q 317 727 355 695 q 393 663 393 604 l 393 517 z m 132 0 l 132 175 l 258 175 l 258 0 z"},"a":{"x_min":0,"x_max":523,"ha":523,"o":"m 475 -4 q 408 -4 375 17 q 342 38 336 82 l 335 91 l 332 134 l 308 444 q 304 493 258 493 q 250 493 243 493 q 242 493 226 490 q 210 486 202 476 q 193 467 191 452 l 190 445 l 190 430 l 190 180 q 190 144 204 132 q 217 119 255 119 l 321 119 l 321 0 l 218 0 q 127 0 90 36 q 54 71 54 160 l 54 433 q 54 538 100 571 q 146 604 293 604 q 375 604 407 577 q 439 550 439 484 l 466 160 l 467 155 l 469 141 q 473 120 497 117 l 504 117 l 504 0 z"},"L":{"x_min":0,"x_max":491,"ha":491,"o":"m 322 -8 q 163 -8 108 26 q 54 60 54 161 l 54 720 l 201 720 l 201 186 q 201 146 220 133 q 240 120 297 120 q 327 123 338 132 q 349 141 352 167 l 352 178 l 352 216 l 490 216 l 490 127 q 490 60 450 26 q 410 -8 322 -8 z"},"3":{"x_min":0,"x_max":513,"ha":513,"o":"m 258 -8 q 149 -8 102 28 q 55 65 55 142 l 55 228 l 183 228 l 183 172 q 183 107 251 107 q 315 107 315 173 l 315 283 q 315 316 302 328 q 289 340 250 340 l 122 340 l 122 458 l 244 458 q 269 458 280 467 q 291 476 294 499 l 294 508 l 294 549 q 294 577 282 588 q 271 598 239 598 l 88 598 l 88 720 l 305 720 q 372 720 401 694 q 430 668 430 612 l 430 504 q 430 430 377 408 l 364 404 l 373 401 q 417 387 435 364 q 453 342 453 297 l 453 146 q 453 66 407 29 q 361 -8 258 -8 z"},";":{"x_min":0,"x_max":221,"ha":221,"o":"m 42 425 l 42 598 l 167 598 l 167 425 z m 55 -126 l 24 -100 l 73 -33 q 80 -25 82 -17 q 86 -2 69 0 l 58 0 l 41 0 l 41 175 l 167 175 l 167 1 z"},"J":{"x_min":0,"x_max":517,"ha":517,"o":"m 291 -7 q 277 -8 262 -8 q 246 -9 238 -9 q 135 -9 84 33 q 34 75 34 152 l 34 230 l 181 230 l 181 190 q 181 127 235 121 q 241 120 251 120 q 309 120 315 177 l 315 190 l 315 597 l 249 597 q 214 597 201 585 q 188 573 188 543 l 188 510 l 51 510 l 51 576 q 51 615 57 637 q 63 659 79 678 q 115 720 188 720 l 463 720 l 463 158 q 463 84 420 42 q 378 0 291 -7 z"},"V":{"x_min":0,"x_max":509,"ha":509,"o":"m 400 114 q 388 45 364 21 q 340 -3 277 -10 l 232 -10 q 168 -3 144 20 q 121 44 108 114 l 0 720 l 151 720 l 243 144 l 246 124 q 251 116 259 120 l 262 123 l 266 144 l 357 720 l 509 720 z"},"7":{"x_min":0,"x_max":513,"ha":513,"o":"m 218 0 l 68 0 l 306 598 l 64 598 l 64 720 l 357 720 q 405 720 431 699 q 457 678 457 642 q 457 623 447 596 z"},"S":{"x_min":0,"x_max":517,"ha":517,"o":"m 308 0 l 54 0 l 54 123 l 249 123 l 257 123 l 281 124 q 332 124 332 176 l 332 220 q 332 249 325 260 q 318 270 288 281 l 259 291 l 252 294 l 210 308 l 200 311 l 164 323 l 125 336 l 117 339 q 35 369 35 460 l 35 588 q 35 652 74 686 q 113 720 192 720 l 439 720 l 439 597 l 247 597 l 236 596 q 209 596 198 588 q 186 579 183 560 l 182 551 l 182 517 q 182 487 196 474 q 210 461 259 446 l 305 432 l 334 423 l 349 418 l 393 402 q 442 384 462 356 q 482 329 482 279 l 482 144 q 482 77 438 38 q 393 0 308 0 z"},"Z":{"x_min":0,"x_max":544,"ha":544,"o":"m 401 0 l 134 0 l 111 1 q 66 6 48 26 q 29 45 29 87 l 29 138 l 335 597 l 227 597 q 200 597 189 586 q 178 575 178 546 l 178 512 l 43 512 l 43 600 q 43 720 155 720 l 424 720 q 470 720 490 705 q 510 690 510 655 l 510 594 l 195 123 l 329 124 q 355 124 366 132 q 376 139 376 157 l 377 173 l 377 183 l 377 232 l 516 232 l 516 123 q 516 57 490 28 q 463 0 401 0 z"},"x":{"x_min":0,"x_max":467,"ha":467,"o":"m 313 0 l 246 202 l 233 260 l 222 202 l 155 0 l 5 0 l 113 248 q 125 277 125 305 q 125 332 113 362 l 12 598 l 160 598 l 221 433 l 233 370 l 246 433 l 305 598 l 453 598 l 351 362 q 346 350 343 336 q 340 321 340 307 q 340 277 353 248 l 462 0 z"},")":{"x_min":0,"x_max":212,"ha":212,"o":"m 61 -141 l 49 -141 l 29 -141 l 29 -52 l 38 -52 q 49 -52 56 -45 q 63 -38 63 -15 l 63 639 q 63 658 59 666 q 52 676 38 677 l 29 677 l 29 766 l 49 766 l 61 765 q 112 760 135 732 q 158 703 158 643 l 158 -18 q 158 -78 134 -107 q 111 -136 61 -141 z"},"&":{"x_min":0,"x_max":590,"ha":590,"o":"m 560 -1 l 533 -1 q 487 -1 466 7 q 444 15 425 40 l 243 266 l 209 240 l 198 232 q 187 223 184 204 l 184 197 l 184 153 q 184 132 196 121 q 208 110 234 110 l 244 109 l 346 109 l 346 0 l 194 0 q 36 0 36 130 l 36 209 l 37 225 q 40 253 50 270 q 59 287 82 307 l 95 316 l 163 367 l 108 432 l 103 438 q 87 462 83 469 q 73 488 73 518 l 73 530 l 73 592 q 73 651 112 685 q 151 719 238 726 q 250 727 258 728 q 267 728 272 728 q 283 728 294 728 q 305 727 316 727 q 395 727 436 692 q 474 660 474 604 l 474 529 q 474 469 435 433 l 425 424 l 344 359 l 513 150 l 519 143 q 539 123 560 120 l 568 119 l 574 119 l 574 0 z m 342 569 q 342 620 282 620 q 269 620 252 617 q 212 609 212 568 l 212 541 l 213 535 l 213 530 l 217 518 l 219 513 l 223 507 l 227 500 l 232 494 l 266 453 l 316 489 l 321 493 q 332 501 337 514 l 342 534 z"},"_":{"x_min":0,"x_max":562,"ha":562,"o":"m -7 0 l -7 36 l 569 36 l 569 0 z"},"v":{"x_min":0,"x_max":489,"ha":489,"o":"m 420 147 q 411 60 382 29 q 353 -2 275 -10 q 265 -11 258 -12 q 250 -12 244 -12 q 236 -12 227 -11 q 218 -10 213 -10 q 138 -3 108 29 q 78 61 68 147 l 19 598 l 160 598 l 194 174 q 194 145 204 130 q 213 116 228 113 q 242 110 246 110 q 295 110 295 174 l 328 598 l 470 598 z"},"O":{"x_min":0,"x_max":561,"ha":561,"o":"m 325 -7 q 175 -7 114 30 q 54 67 54 157 l 54 562 q 54 649 106 689 q 157 729 280 729 q 403 729 455 689 q 507 649 507 562 l 507 157 q 507 76 464 34 q 422 -7 325 -7 z m 360 530 q 360 566 346 581 q 333 596 297 600 l 265 600 q 228 595 214 580 q 201 566 201 530 l 201 190 q 201 155 214 140 q 228 124 264 120 l 297 120 q 332 124 346 140 q 360 155 360 190 z"},"(":{"x_min":0,"x_max":212,"ha":212,"o":"m 163 -137 l 151 -136 q 100 -131 77 -102 q 54 -74 54 -14 l 54 643 q 54 702 77 731 q 100 760 151 765 l 163 765 l 183 765 l 183 677 l 174 676 q 149 676 149 639 l 149 -11 q 149 -48 174 -48 l 183 -48 l 183 -137 z"},"C":{"x_min":0,"x_max":543,"ha":543,"o":"m 276 -9 q 156 -9 105 33 q 54 75 54 168 l 54 559 q 54 654 102 692 q 151 729 280 729 l 326 728 q 417 728 453 695 q 489 662 489 585 l 489 512 l 353 512 l 353 545 q 353 577 342 590 q 330 602 297 605 l 264 605 q 230 601 218 590 q 205 580 202 553 l 201 543 l 201 197 l 202 184 q 202 134 246 125 q 273 120 288 120 q 321 120 338 134 q 356 149 358 175 l 359 189 l 360 197 l 360 232 l 506 232 l 506 155 q 506 75 450 33 q 395 -9 276 -9 z"},"W":{"x_min":0,"x_max":769,"ha":769,"o":"m 684 129 q 675 49 640 20 q 606 -10 523 -10 q 463 -10 434 4 q 404 19 389 54 l 385 65 l 381 54 q 366 21 336 6 q 306 -10 247 -10 q 164 -10 130 20 q 95 49 86 129 l 19 720 l 172 720 l 223 179 l 224 171 l 227 153 q 230 134 240 128 q 249 121 272 121 q 302 121 311 148 q 315 157 315 185 l 315 656 l 455 656 l 455 185 q 455 150 465 135 q 475 120 499 120 q 505 121 509 121 q 538 124 543 153 l 545 166 l 547 179 l 598 720 l 750 720 z"},"A":{"x_min":0,"x_max":514,"ha":514,"o":"m 364 0 l 330 185 l 186 185 l 151 0 l 2 0 l 120 611 l 130 659 l 131 663 q 140 694 164 711 q 189 728 235 728 q 241 729 246 729 q 254 729 258 729 q 273 729 280 728 q 324 728 350 711 q 375 694 385 663 l 395 611 l 513 0 z m 269 579 q 266 596 261 600 q 256 604 251 596 l 246 579 l 198 303 l 318 303 z"},"f":{"x_min":0,"x_max":275,"ha":275,"o":"m 258 609 q 227 605 210 588 q 192 572 192 544 l 192 532 l 274 532 l 274 416 l 191 416 l 191 0 l 55 0 l 55 554 q 55 638 99 684 q 143 731 233 731 q 243 731 254 730 q 264 730 275 730 l 275 610 z"},"Q":{"x_min":0,"x_max":561,"ha":561,"o":"m 481 56 q 468 37 447 25 l 455 24 q 472 21 484 10 q 497 0 500 -14 l 500 -46 l 500 -104 l 357 -104 l 357 -54 q 357 -36 356 -32 q 355 -27 348 -17 q 341 -7 330 -6 l 304 -8 q 168 -8 111 30 q 54 68 54 157 l 54 562 q 54 649 106 689 q 157 729 280 729 q 403 729 455 689 q 507 649 507 562 l 507 157 q 507 117 502 97 q 497 77 481 56 z m 360 530 q 360 566 346 581 q 333 596 297 600 l 265 600 q 228 595 214 580 q 201 566 201 530 l 201 190 q 201 155 214 140 q 228 124 264 120 l 297 120 q 332 124 346 140 q 360 155 360 190 z"},"w":{"x_min":0,"x_max":770,"ha":770,"o":"m 713 136 q 713 61 672 25 q 630 -11 533 -11 q 468 -11 432 2 q 397 15 383 41 q 372 18 335 4 q 298 -11 234 -11 q 135 -11 95 24 q 55 59 55 136 l 54 598 l 190 598 l 190 169 q 190 135 201 121 q 212 107 241 103 q 246 102 251 102 q 255 102 259 102 q 288 102 304 114 q 321 125 321 144 l 321 150 l 321 169 l 321 537 l 383 536 l 445 537 l 445 169 l 445 152 l 445 144 q 447 127 458 118 q 469 108 488 105 q 507 102 512 102 q 519 103 523 103 q 555 107 566 120 q 577 133 577 169 l 577 598 l 715 598 z"},"-":{"x_min":0,"x_max":414,"ha":414,"o":"m 34 237 l 34 361 l 380 361 l 380 237 z"},"E":{"x_min":0,"x_max":545,"ha":545,"o":"m 288 -7 q 161 -7 108 34 q 54 74 54 163 l 54 569 q 54 705 187 722 q 257 730 303 730 q 407 730 449 695 q 491 660 491 582 l 491 511 l 354 511 l 354 547 q 354 579 340 592 q 327 606 288 606 q 281 606 272 605 q 264 604 246 602 q 228 601 216 590 q 203 579 201 552 l 201 543 l 201 433 l 426 433 l 426 315 l 200 315 l 200 191 q 200 128 263 122 q 270 121 278 120 q 286 120 289 120 q 355 120 360 180 l 360 192 l 360 230 l 507 230 l 507 158 q 507 74 455 34 q 403 -7 288 -7 z"},"s":{"x_min":0,"x_max":434,"ha":434,"o":"m 286 2 l 259 0 l 38 0 l 38 117 l 184 117 q 224 117 238 129 q 252 141 252 175 q 252 197 229 215 l 205 230 l 123 285 q 71 319 53 346 q 35 374 35 422 q 35 480 42 508 q 48 535 67 557 q 103 598 168 598 l 372 598 l 372 479 l 243 479 q 212 479 198 472 q 184 465 180 451 q 176 437 176 430 q 176 409 203 391 l 231 374 l 336 298 q 378 267 388 242 q 397 218 397 144 q 397 73 372 42 q 346 10 286 2 z"},"l":{"x_min":0,"x_max":245,"ha":245,"o":"m 54 0 l 54 720 l 191 720 l 191 0 z"},"8":{"x_min":0,"x_max":512,"ha":512,"o":"m 282 -8 l 227 -8 q 127 -8 86 32 q 45 72 45 157 l 45 274 q 45 367 112 386 l 128 390 l 114 395 q 84 410 74 432 q 65 454 65 507 l 65 599 q 65 656 86 682 q 108 709 168 722 l 198 727 q 214 729 235 730 q 256 731 272 731 q 367 731 406 699 q 444 667 444 600 l 444 507 q 444 452 435 432 q 426 411 395 395 l 381 390 l 397 386 q 464 367 464 274 l 464 157 q 464 72 423 32 q 382 -8 282 -8 z m 313 569 q 313 590 307 600 q 301 609 286 612 l 277 614 l 271 615 l 262 616 l 255 616 l 247 616 l 239 615 l 232 614 l 223 612 q 197 607 197 589 l 196 586 l 196 569 l 196 492 q 196 442 236 442 l 274 442 q 313 442 313 492 z m 326 280 q 326 323 291 330 l 281 331 l 228 331 l 219 330 q 183 323 183 280 l 183 177 q 183 155 185 148 q 187 141 196 130 q 204 120 216 114 q 228 109 246 109 l 263 109 q 283 109 293 114 q 303 118 312 128 q 320 138 323 148 q 326 159 326 177 z"},"e":{"x_min":0,"x_max":524,"ha":524,"o":"m 209 249 l 209 363 l 336 363 l 336 430 l 336 438 l 335 451 q 335 486 283 493 l 266 495 q 224 495 207 480 q 190 465 190 428 l 190 178 l 191 165 q 196 137 210 127 q 225 117 263 117 l 444 117 l 444 0 l 206 0 q 125 0 90 38 q 54 75 54 162 l 54 458 l 56 483 q 64 549 110 576 q 157 604 269 604 q 382 604 426 570 q 471 537 471 456 l 471 249 z"},"b":{"x_min":0,"x_max":502,"ha":502,"o":"m 430 123 q 420 47 390 20 q 359 -8 278 -8 q 146 -8 100 28 q 54 64 54 171 l 54 720 l 190 720 l 190 166 q 190 110 232 103 q 237 102 247 102 q 291 102 298 161 l 333 412 l 336 444 q 336 482 307 482 l 294 483 l 278 483 l 208 483 l 208 598 l 349 598 q 475 598 475 482 q 475 466 472 446 z"},"%":{"x_min":0,"x_max":738,"ha":738,"o":"m 593 0 l 518 0 q 454 0 428 26 q 403 51 403 115 l 403 262 q 403 325 430 353 q 457 381 518 381 l 593 381 q 654 381 681 353 q 708 325 708 262 l 708 115 q 708 51 682 26 q 657 0 593 0 z m 277 0 l 218 0 l 465 720 l 522 720 z m 225 337 l 143 337 q 88 337 59 364 q 30 391 30 442 l 30 621 q 30 673 56 696 q 83 720 143 720 l 225 720 q 285 720 312 696 q 338 673 338 621 l 338 442 q 338 337 225 337 z m 602 242 q 602 283 572 283 l 538 283 q 508 283 508 242 l 508 136 q 508 94 538 94 l 572 94 q 602 94 602 136 z m 230 583 q 230 605 223 615 q 216 625 200 625 l 168 625 q 138 625 138 583 l 138 479 q 138 438 168 438 l 200 438 q 230 438 230 479 z"},"m":{"x_min":0,"x_max":772,"ha":772,"o":"m 582 0 l 582 431 l 582 442 l 581 451 q 578 480 551 487 q 524 494 507 494 q 478 494 464 478 q 451 463 451 432 l 451 0 l 321 0 l 321 432 q 321 492 263 492 q 249 492 231 490 q 213 488 202 474 q 190 461 190 431 l 190 0 l 54 0 l 54 456 q 54 526 88 560 q 121 594 201 604 q 228 607 252 607 q 298 607 332 594 q 365 581 386 557 q 408 582 441 594 q 474 607 522 607 q 544 607 571 604 q 652 594 685 561 q 718 528 718 456 l 718 0 z"},",":{"x_min":0,"x_max":187,"ha":187,"o":"m 53 -126 l 22 -100 l 71 -33 q 78 -25 80 -17 q 84 -2 67 0 l 56 0 l 39 0 l 39 175 l 165 175 l 165 1 z"},"n":{"x_min":0,"x_max":518,"ha":518,"o":"m 327 -1 l 327 429 q 327 461 316 475 q 305 489 286 491 q 267 493 253 493 q 219 493 205 478 q 191 463 191 429 l 191 -1 l 54 -1 l 54 436 q 54 528 94 568 q 133 607 238 607 q 254 607 276 606 q 297 604 310 603 q 399 595 432 560 q 464 524 464 436 l 464 2 z"},"h":{"x_min":0,"x_max":516,"ha":516,"o":"m 325 0 l 325 427 q 325 462 316 474 q 306 487 285 490 q 264 494 256 494 q 248 493 244 493 q 213 489 202 475 q 191 461 191 426 l 191 0 l 54 0 l 54 720 l 192 720 l 192 561 q 209 583 240 596 q 271 608 314 608 l 351 605 q 416 594 439 563 q 462 532 462 453 l 462 0 z"},"z":{"x_min":0,"x_max":438,"ha":438,"o":"m 408 478 l 187 117 l 407 117 l 407 0 l 134 0 l 84 0 q 28 0 28 78 l 28 120 l 250 480 l 45 480 l 45 598 l 331 598 q 372 598 390 580 q 409 563 409 526 z"},"B":{"x_min":0,"x_max":551,"ha":551,"o":"m 373 2 l 343 0 l 54 0 l 54 720 l 335 720 q 405 720 440 698 q 474 675 483 623 l 486 598 l 486 495 q 486 408 400 384 l 384 381 l 399 379 q 457 368 480 342 q 504 315 504 263 l 504 145 q 504 87 470 49 q 436 11 373 2 z m 357 263 q 357 292 340 304 q 324 317 285 317 l 223 317 l 223 434 l 286 434 q 349 434 349 499 l 349 541 q 349 571 334 584 q 320 596 286 596 l 202 597 l 202 123 l 285 123 q 347 123 356 176 l 357 190 z"},"K":{"x_min":0,"x_max":551,"ha":551,"o":"m 378 0 l 212 335 q 203 352 203 381 q 203 399 207 414 q 208 421 209 424 q 213 431 214 434 l 366 720 l 520 720 l 366 437 q 351 410 351 384 q 351 362 362 342 l 546 0 z m 54 0 l 54 720 l 200 720 l 200 0 z"},"R":{"x_min":0,"x_max":548,"ha":548,"o":"m 356 0 l 356 240 q 356 286 344 300 q 331 315 292 315 l 223 315 l 223 433 l 290 434 q 321 434 335 449 q 349 464 349 494 l 348 538 q 348 572 336 584 q 323 597 288 597 l 201 597 l 201 0 l 54 0 l 54 720 l 338 720 l 364 719 q 428 713 458 682 q 488 651 488 588 l 488 502 q 488 450 468 422 q 448 394 403 383 l 384 379 q 391 380 404 378 q 457 370 480 340 q 503 310 503 248 l 503 0 z"},"T":{"x_min":0,"x_max":497,"ha":497,"o":"m 387 511 l 387 546 q 387 590 356 597 l 346 598 l 322 598 l 322 0 l 175 0 l 175 598 l 152 598 l 142 597 q 125 593 118 582 q 110 570 110 546 l 110 511 l 0 511 l 0 578 q 0 654 35 687 q 70 720 155 720 l 342 720 q 427 720 462 688 q 497 656 497 578 l 497 511 z"},"P":{"x_min":0,"x_max":511,"ha":511,"o":"m 331 286 l 224 286 l 224 405 l 274 405 q 316 405 332 424 q 349 442 349 488 l 349 529 l 348 548 l 347 555 q 345 576 329 586 q 313 597 281 597 l 200 597 l 200 0 l 54 0 l 54 720 l 328 720 q 414 720 453 687 q 492 654 492 581 l 492 449 q 492 286 331 286 z"},"t":{"x_min":0,"x_max":275,"ha":275,"o":"m 190 480 l 190 186 l 190 174 l 191 158 q 191 121 242 121 l 271 121 l 271 0 l 190 0 q 119 0 86 38 q 54 75 54 158 l 54 681 l 192 731 l 192 598 l 272 598 l 272 480 z"},"M":{"x_min":0,"x_max":791,"ha":791,"o":"m 590 0 l 590 537 q 590 566 579 581 q 568 596 552 598 q 535 601 529 601 q 524 601 522 601 q 467 601 467 537 l 467 0 l 324 0 l 324 537 q 324 601 269 601 q 257 601 250 600 q 201 593 201 537 l 201 0 l 54 0 l 54 556 q 54 635 88 676 q 123 716 201 726 q 211 728 231 729 q 251 730 252 730 q 307 730 340 710 q 374 691 391 653 l 396 640 l 400 653 q 416 690 450 710 q 484 729 542 729 q 565 729 592 726 q 668 716 702 676 q 737 635 737 556 l 737 0 z"},"g":{"x_min":0,"x_max":503,"ha":503,"o":"m 246 -153 l 202 -152 q 104 -152 69 -121 q 34 -90 34 -1 l 33 24 l 163 24 l 164 12 q 170 -50 235 -50 q 241 -50 257 -48 q 312 -41 312 17 l 311 484 l 229 484 q 166 484 166 430 q 166 422 167 417 l 193 223 q 197 191 210 178 q 223 165 251 165 l 291 165 l 291 51 l 214 51 q 135 51 102 79 q 69 107 60 180 l 29 441 q 28 449 28 458 q 27 467 27 472 q 27 598 171 598 l 448 598 l 448 0 q 448 -86 406 -120 q 363 -153 246 -153 z"},"j":{"x_min":0,"x_max":256,"ha":256,"o":"m 62 628 l 62 720 l 202 720 l 202 628 z m 74 -145 l 6 -145 l 6 -41 l 18 -41 q 62 -41 62 25 l 62 598 l 200 598 l 200 0 q 200 -75 170 -110 q 140 -145 74 -145 z"},"i":{"x_min":0,"x_max":249,"ha":249,"o":"m 54 628 l 54 720 l 195 720 l 195 628 z m 55 0 l 55 598 l 193 598 l 193 0 z"},"y":{"x_min":0,"x_max":483,"ha":483,"o":"m 363 -144 l 226 -144 l 250 0 l 205 0 l 179 2 q 122 9 97 39 q 72 69 65 140 l 20 598 l 161 598 l 192 170 q 192 140 200 130 q 209 119 234 119 l 244 119 l 268 120 l 323 598 l 462 598 z"},".":{"x_min":0,"x_max":198,"ha":198,"o":"m 37 0 l 37 175 l 161 175 l 161 0 z"},"p":{"x_min":0,"x_max":504,"ha":504,"o":"m 353 0 l 208 0 l 208 115 l 283 116 q 336 116 336 162 q 336 167 336 172 q 334 180 334 184 l 299 435 q 294 468 282 481 q 269 494 243 494 q 191 494 191 439 l 190 429 l 190 -144 l 54 -144 l 54 428 l 55 459 q 55 539 100 573 q 145 607 248 607 q 349 607 386 579 q 422 551 433 467 l 472 158 q 475 135 475 115 q 475 54 446 27 q 417 0 353 0 z"},"X":{"x_min":0,"x_max":497,"ha":497,"o":"m 346 0 l 261 259 l 253 289 l 251 303 l 249 317 l 247 306 l 244 289 l 237 259 l 151 0 l -1 0 l 118 326 q 129 354 129 383 q 129 412 118 440 l 11 720 l 167 720 l 236 510 q 242 492 245 477 l 249 452 l 250 464 l 252 477 l 261 510 l 331 720 l 486 720 l 380 440 q 368 408 368 382 q 368 357 379 326 l 498 0 z"},"*":{"x_min":0,"x_max":307,"ha":307,"o":"m 228 623 q 223 643 210 658 q 193 676 169 681 l 169 738 q 218 733 252 696 q 281 664 285 623 z m 79 623 l 22 623 q 27 669 59 701 q 91 733 138 739 l 138 681 q 90 669 79 623 z m 170 476 l 170 533 q 218 545 229 591 l 285 591 q 279 546 248 514 q 216 482 170 476 z m 153 566 q 135 566 123 578 q 111 590 111 608 q 111 625 123 637 q 135 649 153 649 q 171 649 183 637 q 195 625 195 608 q 195 590 182 578 q 169 566 153 566 z m 35 550 q 30 560 28 569 q 25 578 23 591 l 78 591 q 86 557 117 540 l 137 532 l 137 475 q 103 480 76 500 q 49 519 35 550 z"},"Y":{"x_min":0,"x_max":487,"ha":487,"o":"m 421 386 q 409 324 390 298 q 371 272 332 265 l 317 263 l 317 0 l 170 0 l 170 263 l 155 265 q 117 272 98 298 q 79 323 66 386 l 0 720 l 153 720 l 199 443 q 204 411 210 402 q 217 392 236 389 l 252 389 q 271 392 278 401 q 284 410 289 443 l 334 720 l 487 720 z"},"c":{"x_min":0,"x_max":400,"ha":400,"o":"m 211 0 q 127 0 90 36 q 54 73 54 159 l 54 434 q 54 507 80 546 q 107 584 163 595 l 189 598 l 364 598 l 364 480 l 256 480 q 224 480 208 464 q 192 449 192 413 l 192 180 q 192 148 208 132 q 224 117 259 117 l 365 117 l 365 0 z"},"!":{"x_min":0,"x_max":253,"ha":253,"o":"m 182 216 l 65 216 l 54 720 l 199 720 z m 63 0 l 63 175 l 186 175 l 186 0 z"},"/":{"x_min":0,"x_max":266,"ha":266,"o":"m 109 0 l 22 0 l 158 720 l 244 720 z"},"6":{"x_min":0,"x_max":512,"ha":512,"o":"m 198 -5 q 125 -5 90 36 q 56 76 56 157 l 56 575 q 56 654 87 687 q 118 720 193 720 l 421 720 l 421 598 l 246 598 q 214 598 204 588 q 193 577 193 545 l 193 179 q 193 121 235 110 q 251 106 267 106 q 298 106 314 124 q 330 142 330 173 l 330 289 q 330 319 322 330 q 314 341 290 345 l 278 346 l 216 346 l 216 454 l 343 454 l 366 453 q 421 453 444 428 q 466 402 466 341 l 466 146 q 466 55 412 25 q 358 -5 198 -5 z"},"r":{"x_min":0,"x_max":268,"ha":268,"o":"m 258 486 q 191 477 191 407 l 191 0 l 54 0 l 54 410 q 54 508 92 548 q 131 589 240 604 q 259 607 274 606 l 274 487 z"},"2":{"x_min":0,"x_max":513,"ha":513,"o":"m 52 0 l 52 83 l 53 100 q 53 136 64 163 q 75 190 98 218 l 104 224 l 131 256 l 273 417 l 281 427 q 314 471 314 515 l 314 567 q 314 616 262 616 q 252 616 237 614 q 222 611 212 600 q 203 590 203 565 l 203 480 l 73 480 l 73 584 q 73 657 109 693 q 145 729 227 729 l 304 729 q 389 721 422 692 q 456 662 456 595 l 456 507 l 455 486 q 448 429 409 375 l 397 362 l 258 201 l 244 185 l 238 178 l 233 171 l 223 156 q 217 148 213 138 q 209 128 207 121 l 461 121 l 461 0 z"},"9":{"x_min":0,"x_max":512,"ha":512,"o":"m 322 0 l 95 0 l 95 121 l 269 121 l 281 122 q 320 128 320 153 l 321 156 l 321 180 l 321 545 q 321 614 251 614 q 186 614 186 546 l 186 432 q 186 401 193 390 q 200 379 223 376 l 235 375 l 299 375 l 299 266 l 171 266 l 150 267 q 94 267 72 292 q 49 316 49 373 l 49 573 q 49 664 102 694 q 155 725 307 725 q 388 725 424 686 q 459 646 459 562 l 459 148 q 459 68 428 34 q 397 0 322 0 z"}," ":{"x_min":0,"x_max":290,"ha":290,"o":""},"I":{"x_min":0,"x_max":256,"ha":256,"o":"m 54 0 l 54 720 l 202 720 l 202 0 z"},"H":{"x_min":0,"x_max":558,"ha":558,"o":"m 503 0 l 357 0 l 357 316 l 201 316 l 201 0 l 54 0 l 54 720 l 201 720 l 201 433 l 279 433 l 357 432 l 358 720 l 504 720 z"},"4":{"x_min":0,"x_max":512,"ha":512,"o":"m 295 0 l 295 194 l 152 194 q 37 194 37 276 q 37 297 45 331 l 137 720 l 272 720 l 184 363 l 179 343 l 178 339 q 177 326 184 318 q 192 311 211 311 l 222 311 l 295 311 l 295 572 l 432 572 l 432 0 z"},"~":{"x_min":0,"x_max":282,"ha":282,"o":"m 204 650 q 192 650 186 650 q 169 650 158 651 q 148 652 127 658 l 117 661 l 87 668 q 72 671 58 671 q 37 671 12 660 l 3 655 l -4 741 l 6 745 q 15 748 28 750 q 40 753 45 753 q 62 753 74 751 q 87 749 120 739 q 153 729 185 729 q 241 729 279 764 l 287 677 q 270 665 248 658 q 227 650 204 650 z"},"D":{"x_min":0,"x_max":561,"ha":561,"o":"m 381 3 l 352 0 l 54 0 l 54 720 l 357 720 q 437 720 472 687 q 507 654 507 580 l 507 182 q 507 27 381 3 z m 361 532 q 361 568 346 582 q 330 597 292 597 l 201 597 l 201 123 l 292 123 q 361 123 361 205 z"},"0":{"x_min":0,"x_max":512,"ha":512,"o":"m 299 -11 l 215 -11 q 113 -11 78 26 q 43 63 43 161 l 43 559 q 43 657 78 694 q 112 731 214 731 l 299 731 q 400 731 435 694 q 470 657 470 559 l 470 161 q 470 63 437 28 q 401 -11 299 -11 z m 333 543 q 333 580 320 596 q 307 612 273 616 l 240 616 q 205 612 192 596 q 180 581 180 543 l 180 178 q 180 140 193 124 q 206 108 240 104 l 273 104 q 308 108 320 124 q 333 139 333 178 z"},"F":{"x_min":0,"x_max":491,"ha":491,"o":"m 350 511 l 350 541 l 349 550 l 348 565 q 346 587 332 596 q 319 606 287 606 q 274 606 261 606 q 247 603 233 600 q 219 598 210 585 q 201 572 201 543 l 201 432 l 426 432 l 426 315 l 200 315 l 200 0 l 54 0 l 54 543 q 54 659 113 692 q 172 724 370 724 q 429 724 460 688 q 490 651 490 583 l 490 511 z"},"`":{"x_min":0,"x_max":258,"ha":258,"o":"m 0 650 l 0 708 q 0 736 26 736 q 33 735 36 735 l 223 713 l 223 650 z"},"k":{"x_min":0,"x_max":479,"ha":479,"o":"m 344 0 l 199 283 q 193 297 193 316 q 193 327 196 341 l 201 355 l 324 598 l 460 598 l 336 354 q 331 343 329 326 q 329 307 337 293 l 492 0 z m 54 0 l 54 720 l 191 720 l 191 0 z"},"u":{"x_min":0,"x_max":517,"ha":517,"o":"m 212 -9 q 127 -9 90 34 q 54 76 54 171 l 54 598 l 190 598 l 190 171 l 191 157 q 191 127 203 115 q 215 103 246 99 l 271 99 q 302 103 313 114 q 324 125 327 157 l 327 171 l 327 598 l 463 598 l 463 171 q 463 64 412 28 q 360 -9 212 -9 z"},"U":{"x_min":0,"x_max":564,"ha":564,"o":"m 282 -8 q 152 -8 103 36 q 54 80 54 191 l 54 720 l 201 720 l 201 194 q 201 153 219 136 q 237 119 282 119 q 326 119 344 136 q 363 154 363 194 l 363 720 l 510 720 l 510 191 q 510 80 461 36 q 412 -8 282 -8 z"},"o":{"x_min":0,"x_max":518,"ha":518,"o":"m 297 -10 l 221 -10 q 127 -10 90 31 q 54 72 54 170 l 54 299 l 54 428 q 54 524 91 566 q 128 608 221 608 l 296 608 q 389 608 426 566 q 464 525 464 428 l 464 299 l 464 170 q 464 74 427 32 q 390 -10 297 -10 z m 326 172 l 326 299 l 326 426 l 326 441 q 326 470 314 482 q 302 494 272 497 l 245 497 q 215 494 204 482 q 192 471 192 441 l 191 426 l 191 299 l 191 172 l 192 158 q 192 127 203 116 q 214 104 245 101 l 272 101 q 302 104 314 116 q 326 128 326 157 z"},"N":{"x_min":0,"x_max":561,"ha":561,"o":"m 359 0 l 359 534 q 359 573 346 586 q 334 600 296 604 l 264 604 q 227 600 214 586 q 202 572 202 534 l 202 0 l 54 0 l 54 545 q 54 642 94 684 q 133 727 232 727 l 328 727 q 429 727 468 685 q 507 643 507 545 l 507 0 z"},"G":{"x_min":0,"x_max":560,"ha":560,"o":"m 283 -7 q 157 -7 106 34 q 54 74 54 165 l 54 572 q 54 648 96 688 q 139 728 231 728 q 385 728 438 700 q 490 672 490 588 l 490 512 l 353 512 l 353 547 q 353 584 336 594 q 319 604 259 604 q 230 604 215 588 q 200 572 200 544 l 200 192 q 200 128 263 121 q 272 120 288 120 q 358 120 358 183 l 359 193 l 359 315 l 256 315 l 256 432 l 506 432 l 506 162 q 506 75 454 34 q 401 -7 283 -7 z"},"q":{"x_min":0,"x_max":498,"ha":498,"o":"m 308 -144 l 308 428 l 307 454 q 299 495 235 495 q 197 495 181 482 q 165 469 165 437 q 165 423 166 416 l 196 172 q 200 140 210 128 q 220 116 243 116 l 289 116 l 289 0 l 202 0 q 133 0 102 30 q 71 60 62 136 l 28 428 q 25 454 25 475 q 25 548 66 578 q 106 607 207 607 l 258 607 q 366 607 405 578 q 444 550 444 477 l 444 -144 z"},"d":{"x_min":0,"x_max":503,"ha":503,"o":"m 222 -9 q 146 -9 113 20 q 80 49 71 119 l 30 424 q 26 451 26 478 q 26 532 48 559 q 70 586 119 595 l 144 598 l 293 598 l 293 481 l 216 479 q 184 479 176 470 q 168 461 168 426 l 168 415 l 204 158 q 211 102 248 102 q 256 101 259 101 q 311 101 311 153 l 312 165 l 312 720 l 449 720 l 449 158 q 449 66 398 28 q 346 -9 222 -9 z"},"1":{"x_min":0,"x_max":512,"ha":512,"o":"m 199 0 l 199 599 l 117 599 l 117 720 l 336 720 l 336 0 z"},"5":{"x_min":0,"x_max":512,"ha":512,"o":"m 260 -9 q 150 -9 101 28 q 52 64 52 140 l 52 226 l 181 226 l 181 164 q 181 137 194 123 q 206 109 235 105 q 241 104 251 104 q 313 104 313 166 l 313 276 q 313 315 301 327 q 289 339 251 339 l 67 339 l 67 720 l 415 720 l 415 598 l 201 598 l 201 455 l 314 455 q 391 455 420 426 q 450 398 450 325 l 450 141 q 450 66 405 28 q 360 -9 260 -9 z"}}}
